# xmcd CD database file
#
# Track frame offsets:
#	182
#	14665
#	28565
#	43375
#	58195
#	72455
#	86557
#	101660
#	116512
#	132132
#	146055
#	160167
#	175092
#	188780
#	201642
#	215832
#	229762
#	243827
#	257612
#	274377
#
# Disc length: 3887 seconds
#
# Revision: 0
# Processed by: cddbd v1.5.1PL0 Copyright (c) Steve Scherf et al.
# Submitted via: CDex 1.51
#
DISCID=350f2d14
DTITLE=Various Artist - Nightfall - Sophisticated Jazz Classics
DYEAR=1997
DGENRE=Jazz
TTITLE0=Benny Carter and His Ork - Nightfall
TTITLE1=Coleman Hawkins and Ork - Body and Soul
TTITLE2=Duke Ellington and His Famous Ork - Blue Feeling
TTITLE3=Benny Goodman Sextet - Memories of You
TTITLE4=Benny Carter and His Ork - Mighty Like the Blues
TTITLE5=Coleman Hawkins - Lost in a Fog
TTITLE6=Duke Ellington and His Famous Ork - In a Sentimental Mood
TTITLE7=Benny Goodman Sextet - These Foolish Things
TTITLE8=Benny Carter and His Ork - Just A Mood
TTITLE9=Coleman Hawkins and Ork - Lamentation
TTITLE10=Duke Ellington and His Famous Ork - Stormy Weather
TTITLE11=Benny Goodman Trio - More Than You Know
TTITLE12=Benny Carter and His Ork - Melancholy Lullaby
TTITLE13=Coleman Hawkins and Ork - Devotion
TTITLE14=Duke Ellington and His Famous Ork - Accent On Youth
TTITLE15=Benny Goodman Sextet - I Surrender Dear
TTITLE16=Benny Carter and His Ork - Lazy Afternoon
TTITLE17=Coleman Hawkins and Ork - Lullaby
TTITLE18=Duke Ellington and His Famous Ork - Sophisticated Lady
TTITLE19=Benny Goodman Trio - Sweet Lorraine
EXTD=YEAR: 1997
EXTT0=
EXTT1=
EXTT2=
EXTT3=
EXTT4=
EXTT5=
EXTT6=
EXTT7=
EXTT8=
EXTT9=
EXTT10=
EXTT11=
EXTT12=
EXTT13=
EXTT14=
EXTT15=
EXTT16=
EXTT17=
EXTT18=
EXTT19=
PLAYORDER=
